#!OML:ASF H:\Terrain\Patient Classification 1\Walking\liu\liu.ASF
:FULLY-SPECIFIED
:DEGREES
501
root 10.606000 16.899599 34.084999 5.804500 4.894980 4.942820
lowerback -73.994598 -52.756901 -58.512001
upperback 4.486750 -65.975601 16.597500
thorax 54.747501 -34.523899 41.670799
lowerneck -237.180008 -28.494202 -104.961006
upperneck 243.260986 -33.579899 110.611000
head 123.646004 -10.176801 54.463902
rclavicle 0.000000 -0.000000
rhumerus -494.954987 53.040600 -832.878052
rradius 322.850983
rwrist -164.153000
rhand -294.472015 -204.875000
rfingers 71.250198
rthumb -27.835701 -504.490997
lclavicle 0.000000 -0.000000
lhumerus -159.899002 -244.936996 887.511963
lradius 356.328003
lwrist 75.873596
lhand -123.209000 -259.231995
lfingers 71.250198
lthumb 137.477997 36.026600
rfemur -422.691986 88.630302 112.048996
rtibia 277.865021
rfoot -245.664993 -132.811005
rtoes -262.907990
lfemur 195.500000 11.153601 -276.287994
ltibia 0.000000
lfoot -164.645004 36.791401
ltoes -28.366600
502
root 10.591600 16.855499 34.276699 5.858500 4.803030 5.448430
lowerback -76.128403 -52.500603 -62.048603
upperback 5.003660 -65.047005 14.287400
thorax 56.513901 -34.167999 41.130402
lowerneck -237.472000 -28.247099 -102.485001
upperneck 240.683990 -33.394897 108.749001
head 122.580994 -10.069400 53.196800
rclavicle -0.000000 -0.000000
rhumerus -495.494019 47.440903 -830.344971
rradius 317.912994
rwrist -159.074005
rhand -288.580994 -201.609009
rfingers 71.250198
rthumb -22.146500 -501.291992
lclavicle -0.000000 -0.000000
lhumerus -168.477005 -252.654999 892.453003
lradius 354.641998
lwrist 79.813904
lhand -110.579002 -256.415009
lfingers 71.250198
lthumb 149.647003 37.978901
rfemur -421.015015 77.649597 114.503006
rtibia 285.000977
rfoot -245.664993 -132.811005
rtoes -262.907990
lfemur 202.765015 11.133100 -280.177002
ltibia 0.000000
lfoot -165.811005 31.742699
ltoes -12.003500
503
root 10.562700 16.822001 34.446899 5.772360 4.703680 5.890350
lowerback -73.034805 -52.898998 -67.658501
upperback 4.670250 -65.217400 12.911500
thorax 54.923702 -34.349598 43.044701
lowerneck -236.802002 -25.892799 -97.496902
upperneck 237.945007 -30.875500 105.643997
head 120.896996 -8.868720 51.389397
rclavicle -0.000000 -0.000000
rhumerus -494.851990 46.301098 -830.167969
rradius 309.148010
rwrist -156.412994
rhand -289.057007 -222.807007
rfingers 71.250198
rthumb -22.606499 -522.484009
lclavicle -0.000000 -0.000000
lhumerus -179.606003 -259.713013 898.984009
lradius 346.778992
lwrist 62.192402
lhand -130.934006 -265.298004
lfingers 71.250198
lthumb 130.031998 30.449902
rfemur -420.880005 72.778000 115.452995
rtibia 293.184998
rfoot -245.664993 -132.811005
rtoes -262.907990
lfemur 209.115005 11.392699 -283.013000
ltibia 0.000000
lfoot -162.043991 31.827600
ltoes -12.780200
504
root 10.533300 16.813200 34.619598 5.781710 4.778710 5.721010
lowerback -71.197701 -52.967800 -66.321602
upperback 3.647400 -65.604698 13.457299
thorax 52.766098 -34.436501 43.039799
lowerneck -237.093994 -26.361599 -99.559402
upperneck 237.115997 -31.638300 108.927002
head 120.834000 -8.965290 52.881096
rclavicle -0.000000 0.000000
rhumerus -495.862000 43.314899 -828.604004
rradius 301.708008
rwrist -152.606003
rhand -292.479980 -248.761993
rfingers 71.250198
rthumb -25.912300 -548.401978
lclavicle -0.000000 0.000000
lhumerus -185.084991 -250.496002 901.896973
lradius 347.057983
lwrist 77.847900
lhand -139.087997 -266.147003
lfingers 71.250198
lthumb 122.171005 30.085299
rfemur -422.839996 68.095695 122.584999
rtibia 303.787994
rfoot -245.664993 -132.811005
rtoes -262.907990
lfemur 214.533997 10.337700 -279.764008
ltibia -0.000000
lfoot -156.492004 39.229500
ltoes -58.666603
505
root 10.504500 16.820400 34.812401 6.086480 5.032040 4.716650
lowerback -75.570999 -52.966000 -55.424599
upperback 2.458920 -66.448395 16.450199
thorax 53.168404 -34.579002 39.712997
lowerneck -236.119995 -27.252100 -103.466995
upperneck 234.507996 -32.602501 113.312996
head 119.921997 -9.202129 54.993900
rclavicle 0.000000 -0.000000
rhumerus -497.588013 37.911697 -824.656006
rradius 296.644989
rwrist -146.055008
rhand -283.208984 -266.156006
rfingers 71.250198
rthumb -16.958000 -565.885986
lclavicle 0.000000 -0.000000
lhumerus -192.117996 -253.372986 906.640015
lradius 343.461975
lwrist 82.185501
lhand -129.856995 -266.162994
lfingers 71.250198
lthumb 131.070007 29.518398
rfemur -426.668030 63.535000 137.218002
rtibia 312.279999
rfoot -245.664993 -132.811005
rtoes -262.907990
lfemur 217.933014 7.661760 -267.169006
ltibia 0.000000
lfoot -151.608002 42.690804
ltoes -95.216400
506
root 10.476500 16.809299 34.985901 5.934920 4.984940 5.300970
lowerback -71.125198 -52.180000 -61.698498
upperback 1.493350 -65.075699 15.261200
thorax 50.065098 -33.963600 42.575699
lowerneck -236.865997 -29.177498 -104.560005
upperneck 232.929001 -34.701801 113.173996
head 119.764008 -10.233099 54.707397
rclavicle 0.000000 0.000000
rhumerus -500.654968 33.589302 -819.829041
rradius 293.855011
rwrist -142.595993
rhand -265.365997 -274.121002
rfingers 71.250198
rthumb 0.274694 -573.919006
lclavicle 0.000000 0.000000
lhumerus -203.043991 -262.614990 916.176025
lradius 334.622009
lwrist 57.188904
lhand -120.131996 -257.730011
lfingers 71.250198
lthumb 140.442993 37.324699
rfemur -427.033020 58.343502 134.867996
rtibia 321.610992
rfoot -245.664993 -132.811005
rtoes -262.907990
lfemur 225.865997 7.277130 -271.496002
ltibia 0.000000
lfoot -146.011993 42.015099
ltoes -107.146996
507
root 10.458900 16.801701 35.180599 5.846860 4.964870 4.963050
lowerback -70.854401 -50.530201 -57.052303
upperback 0.944043 -63.344498 16.462601
thorax 48.734898 -32.968201 41.563202
lowerneck -233.856995 -27.901600 -100.965996
upperneck 232.120987 -32.181698 105.300995
head 118.294998 -9.845460 51.331802
rclavicle 0.000000 -0.000000
rhumerus -503.914001 27.868000 -813.707947
rradius 291.820007
rwrist -139.522003
rhand -269.515991 -265.872986
rfingers 71.250198
rthumb -3.733060 -565.666992
lclavicle 0.000000 -0.000000
lhumerus -209.745010 -249.494995 922.351990
lradius 333.265015
lwrist 57.516701
lhand -89.077698 -247.877991
lfingers 71.250198
lthumb 170.352005 44.853100
rfemur -425.982025 49.259800 145.216995
rtibia 331.492981
rfoot -245.664993 -132.811005
rtoes -262.907990
lfemur 233.421997 7.276920 -266.376007
ltibia -0.000000
lfoot -142.037994 42.575497
ltoes -132.004990
508
root 10.445800 16.787300 35.371700 6.118980 4.710500 4.704990
lowerback -74.274399 -49.762604 -53.519501
upperback 0.469500 -62.501503 17.850800
thorax 49.827801 -32.491299 40.912899
lowerneck -239.398987 -31.012699 -106.071999
upperneck 233.159012 -35.192799 108.711998
head 120.340996 -11.105300 53.161503
rclavicle -0.000000 -0.000000
rhumerus -502.394989 21.886700 -807.054993
rradius 284.833008
rwrist -130.671997
rhand -285.696991 -245.177994
rfingers 71.250198
rthumb -19.361000 -544.887024
lclavicle -0.000000 -0.000000
lhumerus -217.694000 -237.341003 928.416016
lradius 328.695984
lwrist 65.037201
lhand -97.028198 -253.507996
lfingers 71.250198
lthumb 162.697998 39.865997
rfemur -429.622009 40.973503 154.463989
rtibia 342.023010
rfoot -245.664993 -132.811005
rtoes -262.907990
lfemur 237.070999 9.166030 -262.627991
ltibia -0.000000
lfoot -137.242004 42.971603
ltoes -162.108994
509
root 10.421100 16.777800 35.521999 6.277590 4.330830 5.021730
lowerback -70.119400 -48.708099 -57.412399
upperback -1.316800 -61.005901 17.573799
thorax 45.825802 -31.716999 43.418198
lowerneck -244.069992 -31.869099 -107.766998
upperneck 234.066010 -35.944401 110.783997
head 121.790001 -11.223900 54.249001
rclavicle 0.000000 -0.000000
rhumerus -500.724976 16.945200 -802.254028
rradius 274.520996
rwrist -121.390999
rhand -289.027985 -226.432983
rfingers 71.250198
rthumb -22.578699 -526.110962
lclavicle 0.000000 -0.000000
lhumerus -224.855011 -222.697998 931.093018
lradius 321.744995
lwrist 46.231400
lhand -105.698997 -259.755981
lfingers 71.250198
lthumb 154.348007 34.281498
rfemur -433.395020 38.454899 154.975006
rtibia 350.798004
rfoot -245.664993 -132.811005
rtoes -262.907990
lfemur 240.100006 11.952800 -264.804993
ltibia -0.000000
lfoot -128.052002 44.904400
ltoes -190.987000
510
root 10.399000 16.787399 35.725300 6.083390 4.475890 3.968260
lowerback -69.402397 -47.814697 -45.442600
upperback -1.569830 -60.891998 19.367201
thorax 44.067997 -31.382200 38.743099
lowerneck -245.480011 -30.653999 -102.044998
upperneck 236.009995 -34.796101 105.207993
head 122.426003 -10.885400 51.348301
rclavicle 0.000000 0.000000
rhumerus -501.572998 11.407599 -799.291016
rradius 267.416016
rwrist -114.029999
rhand -284.487000 -229.696014
rfingers 71.250198
rthumb -18.192900 -529.416016
lclavicle 0.000000 0.000000
lhumerus -237.308990 -223.507996 938.009033
lradius 315.783020
lwrist 60.748100
lhand -94.598305 -249.687988
lfingers 71.250198
lthumb 165.037994 43.493000
rfemur -429.514008 31.761898 171.455002
rtibia 359.882996
rfoot -245.664993 -132.811005
rtoes -262.907990
lfemur 248.829010 11.015901 -252.128998
ltibia 0.000000
lfoot -117.972000 47.089600
ltoes -206.320007
511
root 10.359300 16.795601 35.893700 6.034740 4.330030 3.202250
lowerback -65.176102 -48.422897 -40.056000
upperback -3.193300 -62.381203 21.626501
thorax 39.836498 -31.946001 38.349499
lowerneck -245.816986 -27.501299 -98.869698
upperneck 233.574005 -31.897499 107.132996
head 121.148003 -9.016020 51.959000
rclavicle 0.000000 0.000000
rhumerus -500.876007 10.494699 -797.385986
rradius 261.552002
rwrist -104.860001
rhand -287.839996 -227.710999
rfingers 71.250198
rthumb -21.431101 -527.401001
lclavicle 0.000000 0.000000
lhumerus -245.308990 -204.608002 935.319946
lradius 307.792999
lwrist 40.332600
lhand -95.572296 -250.975006
lfingers 71.250198
lthumb 164.100006 42.283401
rfemur -428.348999 30.414200 184.132004
rtibia 367.303009
rfoot -245.664993 -132.811005
rtoes -262.907990
lfemur 253.964996 12.377000 -241.865005
ltibia 0.000000
lfoot -102.859001 47.392002
ltoes -194.290009
